<mxfile host="app.diagrams.net" agent="Mozilla/5.0 (Windows NT 10.0; Win64; x64) AppleWebKit/537.36 (KHTML, like Gecko) Chrome/132.0.0.0 Safari/537.36 Edg/132.0.0.0" version="26.0.11">
  <diagram id="6a731a19-8d31-9384-78a2-239565b7b9f0" name="Page-1">
    <mxGraphModel dx="3081" dy="1001" grid="1" gridSize="10" guides="1" tooltips="1" connect="1" arrows="1" fold="1" page="1" pageScale="1" pageWidth="1169" pageHeight="827" background="none" math="0" shadow="0">
      <root>
        <mxCell id="0" />
        <mxCell id="1" parent="0" />
        <mxCell id="1350" value="Constitutive&lt;div&gt;&lt;font size=&quot;1&quot;&gt;Force &amp;amp; Displacement aka&lt;/font&gt;&lt;/div&gt;&lt;div&gt;&lt;font size=&quot;1&quot;&gt;Stress . Strain&lt;/font&gt;&lt;/div&gt;" style="ellipse;whiteSpace=wrap;html=1;shadow=0;fontFamily=Helvetica;fontSize=30;fontColor=#FFFFFF;align=center;strokeWidth=3;fillColor=#1699D3;strokeColor=none;fontStyle=1" parent="1" vertex="1">
          <mxGeometry x="1350" y="1026.5" width="183.5" height="182" as="geometry" />
        </mxCell>
        <mxCell id="1352" value="Compatibility&lt;div style=&quot;line-height: 110%;&quot;&gt;&lt;font style=&quot;font-size: 15px;&quot;&gt;Displacements&lt;/font&gt;&lt;/div&gt;" style="ellipse;whiteSpace=wrap;html=1;shadow=0;fontFamily=Helvetica;fontSize=30;fontColor=#FFFFFF;align=center;strokeWidth=3;fillColor=#E85642;strokeColor=none;fontStyle=1" parent="1" vertex="1">
          <mxGeometry x="1230" y="690" width="190" height="183.5" as="geometry" />
        </mxCell>
        <mxCell id="tunzIx4tNhsC5PCZ-3-s-1543" value="" style="edgeStyle=orthogonalEdgeStyle;rounded=0;orthogonalLoop=1;jettySize=auto;html=1;" parent="1" source="1355" target="tunzIx4tNhsC5PCZ-3-s-1542" edge="1">
          <mxGeometry relative="1" as="geometry" />
        </mxCell>
        <mxCell id="1355" value="Equilibrium&lt;div&gt;&lt;font style=&quot;font-size: 15px;&quot;&gt;Forces&lt;/font&gt;&lt;/div&gt;" style="ellipse;whiteSpace=wrap;html=1;shadow=0;fontFamily=Helvetica;fontSize=30;fontColor=#FFFFFF;align=center;strokeWidth=3;fillColor=#F08705;strokeColor=none;fontStyle=1" parent="1" vertex="1">
          <mxGeometry x="1030" y="1150" width="165" height="175" as="geometry" />
        </mxCell>
        <mxCell id="1359" style="endArrow=none;strokeWidth=6;strokeColor=#1699D3;html=1;" parent="1" source="1515" target="1350" edge="1">
          <mxGeometry relative="1" as="geometry" />
        </mxCell>
        <mxCell id="1361" style="endArrow=none;strokeWidth=6;strokeColor=#E85642;html=1;" parent="1" source="1515" target="1352" edge="1">
          <mxGeometry relative="1" as="geometry" />
        </mxCell>
        <mxCell id="1365" value="" style="edgeStyle=none;endArrow=none;strokeWidth=6;strokeColor=#F08705;html=1;" parent="1" source="1515" target="1355" edge="1">
          <mxGeometry x="181" y="226.5" width="100" height="100" as="geometry">
            <mxPoint x="181" y="326.5" as="sourcePoint" />
            <mxPoint x="281" y="226.5" as="targetPoint" />
          </mxGeometry>
        </mxCell>
        <mxCell id="1515" value="Analysis" style="ellipse;whiteSpace=wrap;html=1;shadow=0;fontFamily=Helvetica;fontSize=30;fontColor=#2F5B7C;align=center;strokeColor=#2F5B7C;strokeWidth=6;fillColor=#FFFFFF;fontStyle=1;gradientColor=none;" parent="1" vertex="1">
          <mxGeometry x="1120" y="920" width="160" height="160" as="geometry" />
        </mxCell>
        <mxCell id="tunzIx4tNhsC5PCZ-3-s-1542" value="&lt;font style=&quot;font-size: 19px;&quot;&gt;Equations&lt;/font&gt;&lt;div style=&quot;line-height: 90%;&quot;&gt;&lt;font style=&quot;font-size: 10px;&quot;&gt;NET FORCE X; NET FORCE Y; Moment&lt;/font&gt;&lt;/div&gt;" style="whiteSpace=wrap;html=1;fontSize=30;fillColor=#F08705;strokeColor=none;fontColor=#FFFFFF;shadow=0;strokeWidth=3;fontStyle=1;" parent="1" vertex="1">
          <mxGeometry x="1050" y="1417.5" width="125" height="102.5" as="geometry" />
        </mxCell>
        <mxCell id="tunzIx4tNhsC5PCZ-3-s-1552" value="" style="rounded=0;orthogonalLoop=1;jettySize=auto;html=1;" parent="1" source="tunzIx4tNhsC5PCZ-3-s-1549" target="tunzIx4tNhsC5PCZ-3-s-1551" edge="1">
          <mxGeometry relative="1" as="geometry" />
        </mxCell>
        <mxCell id="tunzIx4tNhsC5PCZ-3-s-1553" style="rounded=0;orthogonalLoop=1;jettySize=auto;html=1;exitX=0;exitY=0;exitDx=0;exitDy=0;" parent="1" source="tunzIx4tNhsC5PCZ-3-s-1549" target="tunzIx4tNhsC5PCZ-3-s-1554" edge="1">
          <mxGeometry relative="1" as="geometry">
            <mxPoint x="1620" y="1007.5" as="targetPoint" />
          </mxGeometry>
        </mxCell>
        <mxCell id="tunzIx4tNhsC5PCZ-3-s-1549" value="Sign Language" style="rounded=1;whiteSpace=wrap;html=1;fillColor=#e51400;fontColor=#ffffff;strokeColor=#B20000;fontSize=20;" parent="1" vertex="1">
          <mxGeometry x="1870" y="813.5" width="120" height="60" as="geometry" />
        </mxCell>
        <mxCell id="tunzIx4tNhsC5PCZ-3-s-1551" value="Coordinate System" style="rounded=1;whiteSpace=wrap;html=1;fillColor=#e51400;fontColor=#ffffff;strokeColor=#B20000;fontSize=20;" parent="1" vertex="1">
          <mxGeometry x="1880" y="690" width="120" height="60" as="geometry" />
        </mxCell>
        <mxCell id="tunzIx4tNhsC5PCZ-3-s-1554" value="Tension is POSITVE" style="ellipse;whiteSpace=wrap;html=1;aspect=fixed;" parent="1" vertex="1">
          <mxGeometry x="1630" y="720" width="80" height="80" as="geometry" />
        </mxCell>
        <mxCell id="tunzIx4tNhsC5PCZ-3-s-1556" value="&lt;font style=&quot;font-size: 20px;&quot;&gt;Unknowns&lt;/font&gt;" style="rounded=1;whiteSpace=wrap;html=1;fontStyle=1;fillColor=#a20025;strokeColor=#6F0000;fontColor=#ffffff;" parent="1" vertex="1">
          <mxGeometry x="1680" y="1060" width="120" height="60" as="geometry" />
        </mxCell>
        <mxCell id="tunzIx4tNhsC5PCZ-3-s-1557" value="Displacements&lt;div&gt;Support Reactions&lt;/div&gt;&lt;div&gt;Member Forces&lt;/div&gt;&lt;div&gt;Elongation&lt;/div&gt;&lt;div&gt;&lt;br&gt;&lt;/div&gt;" style="rounded=1;whiteSpace=wrap;html=1;" parent="1" vertex="1">
          <mxGeometry x="1550" y="930" width="150" height="93.75" as="geometry" />
        </mxCell>
        <mxCell id="tunzIx4tNhsC5PCZ-3-s-1558" value="Unit Load/Virtual Work Method" style="rounded=1;whiteSpace=wrap;html=1;fontStyle=1" parent="1" vertex="1">
          <mxGeometry x="1760" y="1500" width="120" height="60" as="geometry" />
        </mxCell>
        <mxCell id="tunzIx4tNhsC5PCZ-3-s-1559" value="Displacement Method" style="rounded=1;whiteSpace=wrap;html=1;fontStyle=1" parent="1" vertex="1">
          <mxGeometry x="1680" y="1577.5" width="120" height="60" as="geometry" />
        </mxCell>
        <mxCell id="tunzIx4tNhsC5PCZ-3-s-1560" value="Method Of Sections" style="rounded=1;whiteSpace=wrap;html=1;fontStyle=1" parent="1" vertex="1">
          <mxGeometry x="1980" y="1332.5" width="120" height="60" as="geometry" />
        </mxCell>
        <mxCell id="tunzIx4tNhsC5PCZ-3-s-1561" value="Method of Joints" style="rounded=0;whiteSpace=wrap;html=1;fontStyle=1" parent="1" vertex="1">
          <mxGeometry x="1980" y="1402.5" width="120" height="60" as="geometry" />
        </mxCell>
        <mxCell id="tunzIx4tNhsC5PCZ-3-s-1562" value="&lt;font face=&quot;Courier New&quot; style=&quot;font-size: 40px;&quot;&gt;&lt;b style=&quot;&quot;&gt;&lt;i style=&quot;&quot;&gt;Structural Engineering&lt;/i&gt;&lt;/b&gt;&lt;/font&gt;" style="ellipse;whiteSpace=wrap;html=1;" parent="1" vertex="1">
          <mxGeometry x="770" y="610" width="340" height="310" as="geometry" />
        </mxCell>
        <mxCell id="tunzIx4tNhsC5PCZ-3-s-1564" value="" style="endArrow=none;html=1;rounded=0;entryX=1;entryY=1;entryDx=0;entryDy=0;" parent="1" source="1515" target="tunzIx4tNhsC5PCZ-3-s-1562" edge="1">
          <mxGeometry width="50" height="50" relative="1" as="geometry">
            <mxPoint x="860" y="880" as="sourcePoint" />
            <mxPoint x="910" y="830" as="targetPoint" />
          </mxGeometry>
        </mxCell>
        <mxCell id="tunzIx4tNhsC5PCZ-3-s-1565" value="" style="endArrow=none;html=1;rounded=0;exitX=1;exitY=0;exitDx=0;exitDy=0;" parent="1" source="tunzIx4tNhsC5PCZ-3-s-1566" target="tunzIx4tNhsC5PCZ-3-s-1562" edge="1">
          <mxGeometry width="50" height="50" relative="1" as="geometry">
            <mxPoint x="650" y="960" as="sourcePoint" />
            <mxPoint x="1030" y="900" as="targetPoint" />
          </mxGeometry>
        </mxCell>
        <mxCell id="tunzIx4tNhsC5PCZ-3-s-1566" value="&lt;font style=&quot;font-size: 41px;&quot;&gt;Design&lt;/font&gt;" style="ellipse;whiteSpace=wrap;html=1;" parent="1" vertex="1">
          <mxGeometry x="480" y="835" width="220" height="190" as="geometry" />
        </mxCell>
        <mxCell id="tunzIx4tNhsC5PCZ-3-s-1567" value="&lt;b&gt;&lt;font style=&quot;font-size: 35px;&quot;&gt;TEST&lt;/font&gt;&lt;/b&gt;" style="ellipse;whiteSpace=wrap;html=1;" parent="1" vertex="1">
          <mxGeometry x="881.75" y="270" width="200" height="200" as="geometry" />
        </mxCell>
        <mxCell id="tunzIx4tNhsC5PCZ-3-s-1572" value="Find Reactions" style="rounded=0;whiteSpace=wrap;html=1;fillColor=#f8cecc;strokeColor=#b85450;fontStyle=1;fontSize=16;" parent="1" vertex="1">
          <mxGeometry x="1850" y="1010" width="120" height="60" as="geometry" />
        </mxCell>
        <mxCell id="tunzIx4tNhsC5PCZ-3-s-1573" value="Find Internal Member Forces" style="rounded=0;whiteSpace=wrap;html=1;fillColor=#f8cecc;strokeColor=#b85450;fontStyle=1;fontSize=16;" parent="1" vertex="1">
          <mxGeometry x="1980" y="1260" width="120" height="60" as="geometry" />
        </mxCell>
        <mxCell id="tunzIx4tNhsC5PCZ-3-s-1583" value="" style="rounded=0;whiteSpace=wrap;html=1;" parent="1" vertex="1">
          <mxGeometry x="1710" y="1437.5" width="120" height="60" as="geometry" />
        </mxCell>
        <mxCell id="hRcAGuIF9GtKOeHrfG8j-1520" style="rounded=0;orthogonalLoop=1;jettySize=auto;html=1;exitX=0.5;exitY=0;exitDx=0;exitDy=0;entryX=0.43;entryY=0.992;entryDx=0;entryDy=0;elbow=vertical;entryPerimeter=0;" parent="1" source="hRcAGuIF9GtKOeHrfG8j-1515" target="tunzIx4tNhsC5PCZ-3-s-1566" edge="1">
          <mxGeometry relative="1" as="geometry" />
        </mxCell>
        <mxCell id="hRcAGuIF9GtKOeHrfG8j-1515" value="Geometry" style="whiteSpace=wrap;html=1;" parent="1" vertex="1">
          <mxGeometry x="480" y="1120" width="120" height="60" as="geometry" />
        </mxCell>
        <mxCell id="hRcAGuIF9GtKOeHrfG8j-1516" value="Material Properties" style="whiteSpace=wrap;html=1;" parent="1" vertex="1">
          <mxGeometry x="250" y="1020" width="120" height="60" as="geometry" />
        </mxCell>
        <mxCell id="hRcAGuIF9GtKOeHrfG8j-1522" style="edgeStyle=orthogonalEdgeStyle;rounded=0;orthogonalLoop=1;jettySize=auto;html=1;exitX=1;exitY=0.5;exitDx=0;exitDy=0;" parent="1" source="hRcAGuIF9GtKOeHrfG8j-1517" target="1355" edge="1">
          <mxGeometry relative="1" as="geometry" />
        </mxCell>
        <mxCell id="NpMVmpPeoFZolYydam3e-1530" style="edgeStyle=none;shape=connector;rounded=0;orthogonalLoop=1;jettySize=auto;html=1;exitX=0.25;exitY=0;exitDx=0;exitDy=0;entryX=0.75;entryY=1;entryDx=0;entryDy=0;strokeColor=default;align=center;verticalAlign=middle;fontFamily=Helvetica;fontSize=11;fontColor=default;labelBackgroundColor=default;endArrow=classic;" edge="1" parent="1" source="hRcAGuIF9GtKOeHrfG8j-1517" target="NpMVmpPeoFZolYydam3e-1528">
          <mxGeometry relative="1" as="geometry" />
        </mxCell>
        <mxCell id="NpMVmpPeoFZolYydam3e-1532" style="edgeStyle=none;shape=connector;rounded=0;orthogonalLoop=1;jettySize=auto;html=1;exitX=0.75;exitY=1;exitDx=0;exitDy=0;entryX=0.25;entryY=0;entryDx=0;entryDy=0;strokeColor=default;align=center;verticalAlign=middle;fontFamily=Helvetica;fontSize=11;fontColor=default;labelBackgroundColor=default;endArrow=classic;" edge="1" parent="1" source="hRcAGuIF9GtKOeHrfG8j-1517" target="hRcAGuIF9GtKOeHrfG8j-1519">
          <mxGeometry relative="1" as="geometry" />
        </mxCell>
        <mxCell id="NpMVmpPeoFZolYydam3e-1533" style="edgeStyle=none;shape=connector;rounded=0;orthogonalLoop=1;jettySize=auto;html=1;exitX=0.25;exitY=1;exitDx=0;exitDy=0;entryX=0.75;entryY=0;entryDx=0;entryDy=0;strokeColor=default;align=center;verticalAlign=middle;fontFamily=Helvetica;fontSize=11;fontColor=default;labelBackgroundColor=default;endArrow=classic;" edge="1" parent="1" source="hRcAGuIF9GtKOeHrfG8j-1517" target="hRcAGuIF9GtKOeHrfG8j-1518">
          <mxGeometry relative="1" as="geometry" />
        </mxCell>
        <mxCell id="hRcAGuIF9GtKOeHrfG8j-1517" value="Loads&amp;nbsp;" style="whiteSpace=wrap;html=1;" parent="1" vertex="1">
          <mxGeometry x="780" y="1207.5" width="120" height="60" as="geometry" />
        </mxCell>
        <mxCell id="hRcAGuIF9GtKOeHrfG8j-1518" value="Cyclic" style="whiteSpace=wrap;html=1;" parent="1" vertex="1">
          <mxGeometry x="700" y="1310" width="120" height="60" as="geometry" />
        </mxCell>
        <mxCell id="hRcAGuIF9GtKOeHrfG8j-1519" value="Static" style="whiteSpace=wrap;html=1;" parent="1" vertex="1">
          <mxGeometry x="870" y="1310" width="120" height="60" as="geometry" />
        </mxCell>
        <mxCell id="hRcAGuIF9GtKOeHrfG8j-1521" style="rounded=0;orthogonalLoop=1;jettySize=auto;html=1;exitX=1;exitY=0;exitDx=0;exitDy=0;entryX=0.045;entryY=0.737;entryDx=0;entryDy=0;entryPerimeter=0;" parent="1" source="hRcAGuIF9GtKOeHrfG8j-1516" target="tunzIx4tNhsC5PCZ-3-s-1566" edge="1">
          <mxGeometry relative="1" as="geometry" />
        </mxCell>
        <mxCell id="hRcAGuIF9GtKOeHrfG8j-1554" style="rounded=0;orthogonalLoop=1;jettySize=auto;html=1;exitX=0;exitY=0.25;exitDx=0;exitDy=0;entryX=1;entryY=0.5;entryDx=0;entryDy=0;" parent="1" source="hRcAGuIF9GtKOeHrfG8j-1524" target="hRcAGuIF9GtKOeHrfG8j-1529" edge="1">
          <mxGeometry relative="1" as="geometry" />
        </mxCell>
        <mxCell id="hRcAGuIF9GtKOeHrfG8j-1524" value="Tension" style="whiteSpace=wrap;html=1;dashed=1;" parent="1" vertex="1">
          <mxGeometry x="265" y="1560" width="120" height="60" as="geometry" />
        </mxCell>
        <mxCell id="hRcAGuIF9GtKOeHrfG8j-1525" value="Compression" style="whiteSpace=wrap;html=1;" parent="1" vertex="1">
          <mxGeometry x="265" y="1640" width="120" height="60" as="geometry" />
        </mxCell>
        <mxCell id="hRcAGuIF9GtKOeHrfG8j-1526" value="Flexure" style="whiteSpace=wrap;html=1;" parent="1" vertex="1">
          <mxGeometry x="265" y="1730" width="120" height="60" as="geometry" />
        </mxCell>
        <mxCell id="hRcAGuIF9GtKOeHrfG8j-1527" value="Torsion" style="whiteSpace=wrap;html=1;" parent="1" vertex="1">
          <mxGeometry x="265" y="1810" width="120" height="60" as="geometry" />
        </mxCell>
        <mxCell id="hRcAGuIF9GtKOeHrfG8j-1539" style="edgeStyle=orthogonalEdgeStyle;rounded=0;orthogonalLoop=1;jettySize=auto;html=1;exitX=1;exitY=0;exitDx=0;exitDy=0;entryX=0;entryY=0.5;entryDx=0;entryDy=0;" parent="1" source="hRcAGuIF9GtKOeHrfG8j-1528" target="hRcAGuIF9GtKOeHrfG8j-1529" edge="1">
          <mxGeometry relative="1" as="geometry" />
        </mxCell>
        <mxCell id="hRcAGuIF9GtKOeHrfG8j-1540" style="edgeStyle=orthogonalEdgeStyle;rounded=0;orthogonalLoop=1;jettySize=auto;html=1;exitX=1;exitY=0.25;exitDx=0;exitDy=0;entryX=0;entryY=0.5;entryDx=0;entryDy=0;" parent="1" source="hRcAGuIF9GtKOeHrfG8j-1528" target="hRcAGuIF9GtKOeHrfG8j-1530" edge="1">
          <mxGeometry relative="1" as="geometry" />
        </mxCell>
        <mxCell id="hRcAGuIF9GtKOeHrfG8j-1541" style="edgeStyle=orthogonalEdgeStyle;rounded=0;orthogonalLoop=1;jettySize=auto;html=1;exitX=1;exitY=0.5;exitDx=0;exitDy=0;entryX=0;entryY=0.5;entryDx=0;entryDy=0;" parent="1" source="hRcAGuIF9GtKOeHrfG8j-1528" target="hRcAGuIF9GtKOeHrfG8j-1534" edge="1">
          <mxGeometry relative="1" as="geometry" />
        </mxCell>
        <mxCell id="hRcAGuIF9GtKOeHrfG8j-1542" style="edgeStyle=orthogonalEdgeStyle;rounded=0;orthogonalLoop=1;jettySize=auto;html=1;exitX=1;exitY=0.75;exitDx=0;exitDy=0;entryX=0;entryY=0.5;entryDx=0;entryDy=0;" parent="1" source="hRcAGuIF9GtKOeHrfG8j-1528" target="hRcAGuIF9GtKOeHrfG8j-1533" edge="1">
          <mxGeometry relative="1" as="geometry" />
        </mxCell>
        <mxCell id="hRcAGuIF9GtKOeHrfG8j-1543" style="edgeStyle=orthogonalEdgeStyle;rounded=0;orthogonalLoop=1;jettySize=auto;html=1;exitX=1;exitY=1;exitDx=0;exitDy=0;entryX=0;entryY=0.5;entryDx=0;entryDy=0;" parent="1" source="hRcAGuIF9GtKOeHrfG8j-1528" target="hRcAGuIF9GtKOeHrfG8j-1531" edge="1">
          <mxGeometry relative="1" as="geometry" />
        </mxCell>
        <mxCell id="hRcAGuIF9GtKOeHrfG8j-1544" style="edgeStyle=orthogonalEdgeStyle;rounded=0;orthogonalLoop=1;jettySize=auto;html=1;exitX=0.75;exitY=1;exitDx=0;exitDy=0;entryX=0;entryY=0.5;entryDx=0;entryDy=0;" parent="1" source="hRcAGuIF9GtKOeHrfG8j-1528" target="hRcAGuIF9GtKOeHrfG8j-1532" edge="1">
          <mxGeometry relative="1" as="geometry" />
        </mxCell>
        <mxCell id="hRcAGuIF9GtKOeHrfG8j-1545" style="edgeStyle=orthogonalEdgeStyle;rounded=0;orthogonalLoop=1;jettySize=auto;html=1;exitX=0.5;exitY=1;exitDx=0;exitDy=0;entryX=0;entryY=0.5;entryDx=0;entryDy=0;" parent="1" source="hRcAGuIF9GtKOeHrfG8j-1528" target="hRcAGuIF9GtKOeHrfG8j-1535" edge="1">
          <mxGeometry relative="1" as="geometry" />
        </mxCell>
        <mxCell id="hRcAGuIF9GtKOeHrfG8j-1528" value="Structures" style="whiteSpace=wrap;html=1;" parent="1" vertex="1">
          <mxGeometry x="-545" y="1667.5" width="120" height="60" as="geometry" />
        </mxCell>
        <mxCell id="hRcAGuIF9GtKOeHrfG8j-1529" value="Cables" style="rounded=1;whiteSpace=wrap;html=1;" parent="1" vertex="1">
          <mxGeometry x="-265" y="1460" width="120" height="60" as="geometry" />
        </mxCell>
        <mxCell id="hRcAGuIF9GtKOeHrfG8j-1530" value="Arches" style="rounded=1;whiteSpace=wrap;html=1;" parent="1" vertex="1">
          <mxGeometry x="-265" y="1540" width="120" height="60" as="geometry" />
        </mxCell>
        <mxCell id="hRcAGuIF9GtKOeHrfG8j-1531" value="Beams" style="rounded=1;whiteSpace=wrap;html=1;" parent="1" vertex="1">
          <mxGeometry x="-265" y="1750" width="120" height="60" as="geometry" />
        </mxCell>
        <mxCell id="hRcAGuIF9GtKOeHrfG8j-1532" value="Frames" style="rounded=1;whiteSpace=wrap;html=1;" parent="1" vertex="1">
          <mxGeometry x="-265" y="1820" width="120" height="60" as="geometry" />
        </mxCell>
        <mxCell id="hRcAGuIF9GtKOeHrfG8j-1533" value="Trusses" style="rounded=1;whiteSpace=wrap;html=1;" parent="1" vertex="1">
          <mxGeometry x="-125" y="1680" width="140" height="57.5" as="geometry" />
        </mxCell>
        <mxCell id="hRcAGuIF9GtKOeHrfG8j-1534" value="Columns" style="rounded=1;whiteSpace=wrap;html=1;" parent="1" vertex="1">
          <mxGeometry x="-125" y="1610" width="140" height="57.5" as="geometry" />
        </mxCell>
        <mxCell id="hRcAGuIF9GtKOeHrfG8j-1535" value="Connections/ Fixities" style="rounded=1;whiteSpace=wrap;html=1;" parent="1" vertex="1">
          <mxGeometry x="-265" y="1900" width="120" height="60" as="geometry" />
        </mxCell>
        <mxCell id="hRcAGuIF9GtKOeHrfG8j-1536" value="Principle Forces" style="rhombus;whiteSpace=wrap;html=1;" parent="1" vertex="1">
          <mxGeometry x="285" y="1460" width="80" height="80" as="geometry" />
        </mxCell>
        <mxCell id="hRcAGuIF9GtKOeHrfG8j-1538" value="How does the force&lt;div&gt;&amp;nbsp;flow between&lt;/div&gt;&lt;div&gt;&amp;nbsp;members?&lt;/div&gt;" style="ellipse;shape=cloud;whiteSpace=wrap;html=1;" parent="1" vertex="1">
          <mxGeometry x="840" y="1010" width="170" height="100" as="geometry" />
        </mxCell>
        <mxCell id="hRcAGuIF9GtKOeHrfG8j-1546" value="Stiffness" style="rounded=0;whiteSpace=wrap;html=1;fillColor=#f8cecc;strokeColor=#b85450;fontSize=26;fontStyle=1" parent="1" vertex="1">
          <mxGeometry x="570" y="1211" width="120" height="60" as="geometry" />
        </mxCell>
        <mxCell id="hRcAGuIF9GtKOeHrfG8j-1547" value="Strength" style="rounded=1;whiteSpace=wrap;html=1;" parent="1" vertex="1">
          <mxGeometry x="260" y="690" width="120" height="60" as="geometry" />
        </mxCell>
        <mxCell id="hRcAGuIF9GtKOeHrfG8j-1548" value="Ductility" style="rounded=1;whiteSpace=wrap;html=1;" parent="1" vertex="1">
          <mxGeometry x="260" y="760" width="120" height="60" as="geometry" />
        </mxCell>
        <mxCell id="hRcAGuIF9GtKOeHrfG8j-1549" value="Redundancy" style="rounded=1;whiteSpace=wrap;html=1;" parent="1" vertex="1">
          <mxGeometry x="260" y="827" width="120" height="60" as="geometry" />
        </mxCell>
        <mxCell id="hRcAGuIF9GtKOeHrfG8j-1550" value="Limit States" style="rounded=1;whiteSpace=wrap;html=1;" parent="1" vertex="1">
          <mxGeometry x="440" y="700" width="120" height="60" as="geometry" />
        </mxCell>
        <mxCell id="hRcAGuIF9GtKOeHrfG8j-1551" value="Tributary Area/Load Path" style="rounded=0;whiteSpace=wrap;html=1;" parent="1" vertex="1">
          <mxGeometry x="730" y="1020" width="120" height="60" as="geometry" />
        </mxCell>
        <mxCell id="hRcAGuIF9GtKOeHrfG8j-1552" value="Elastic" style="rounded=0;whiteSpace=wrap;html=1;" parent="1" vertex="1">
          <mxGeometry x="480" y="1754" width="120" height="60" as="geometry" />
        </mxCell>
        <mxCell id="hRcAGuIF9GtKOeHrfG8j-1561" value="Isotropic" style="rounded=0;whiteSpace=wrap;html=1;" parent="1" vertex="1">
          <mxGeometry x="130" y="940" width="120" height="60" as="geometry" />
        </mxCell>
        <mxCell id="NpMVmpPeoFZolYydam3e-1515" value="Finite Element Analysis" style="whiteSpace=wrap;html=1;fontStyle=1" vertex="1" parent="1">
          <mxGeometry x="2290" y="1150" width="120" height="60" as="geometry" />
        </mxCell>
        <mxCell id="NpMVmpPeoFZolYydam3e-1521" style="rounded=0;orthogonalLoop=1;jettySize=auto;html=1;exitX=1;exitY=0.5;exitDx=0;exitDy=0;entryX=0;entryY=0.5;entryDx=0;entryDy=0;" edge="1" parent="1" source="NpMVmpPeoFZolYydam3e-1516" target="NpMVmpPeoFZolYydam3e-1520">
          <mxGeometry relative="1" as="geometry" />
        </mxCell>
        <mxCell id="NpMVmpPeoFZolYydam3e-1523" style="edgeStyle=none;shape=connector;rounded=0;orthogonalLoop=1;jettySize=auto;html=1;exitX=1;exitY=0.5;exitDx=0;exitDy=0;entryX=0;entryY=0.5;entryDx=0;entryDy=0;strokeColor=default;align=center;verticalAlign=middle;fontFamily=Helvetica;fontSize=11;fontColor=default;labelBackgroundColor=default;endArrow=classic;" edge="1" parent="1" source="NpMVmpPeoFZolYydam3e-1516" target="NpMVmpPeoFZolYydam3e-1522">
          <mxGeometry relative="1" as="geometry" />
        </mxCell>
        <mxCell id="NpMVmpPeoFZolYydam3e-1516" value="Displacement" style="whiteSpace=wrap;html=1;" vertex="1" parent="1">
          <mxGeometry x="1680" y="1130" width="120" height="60" as="geometry" />
        </mxCell>
        <mxCell id="NpMVmpPeoFZolYydam3e-1517" value="Reactions" style="whiteSpace=wrap;html=1;" vertex="1" parent="1">
          <mxGeometry x="1680" y="1200" width="120" height="60" as="geometry" />
        </mxCell>
        <mxCell id="NpMVmpPeoFZolYydam3e-1524" style="edgeStyle=none;shape=connector;rounded=0;orthogonalLoop=1;jettySize=auto;html=1;exitX=1;exitY=0.5;exitDx=0;exitDy=0;entryX=0;entryY=0.5;entryDx=0;entryDy=0;strokeColor=default;align=center;verticalAlign=middle;fontFamily=Helvetica;fontSize=11;fontColor=default;labelBackgroundColor=default;endArrow=classic;" edge="1" parent="1" source="NpMVmpPeoFZolYydam3e-1518" target="NpMVmpPeoFZolYydam3e-1519">
          <mxGeometry relative="1" as="geometry" />
        </mxCell>
        <mxCell id="NpMVmpPeoFZolYydam3e-1518" value="Internal Forces" style="whiteSpace=wrap;html=1;" vertex="1" parent="1">
          <mxGeometry x="1680" y="1271" width="120" height="60" as="geometry" />
        </mxCell>
        <mxCell id="NpMVmpPeoFZolYydam3e-1519" value="M, V, N Diagram" style="whiteSpace=wrap;html=1;" vertex="1" parent="1">
          <mxGeometry x="1820" y="1286.5" width="80" height="29" as="geometry" />
        </mxCell>
        <mxCell id="NpMVmpPeoFZolYydam3e-1520" value="Elongation" style="whiteSpace=wrap;html=1;" vertex="1" parent="1">
          <mxGeometry x="1830" y="1120" width="105" height="30" as="geometry" />
        </mxCell>
        <mxCell id="NpMVmpPeoFZolYydam3e-1522" value="Strain" style="whiteSpace=wrap;html=1;fontFamily=Helvetica;fontSize=11;fontColor=default;labelBackgroundColor=default;" vertex="1" parent="1">
          <mxGeometry x="1840" y="1170" width="60" height="20" as="geometry" />
        </mxCell>
        <mxCell id="NpMVmpPeoFZolYydam3e-1525" value="1. Strong Form" style="whiteSpace=wrap;html=1;fontFamily=Helvetica;fontSize=11;fontColor=default;labelBackgroundColor=default;" vertex="1" parent="1">
          <mxGeometry x="2470" y="1030" width="120" height="60" as="geometry" />
        </mxCell>
        <mxCell id="NpMVmpPeoFZolYydam3e-1526" value="2. Weak Form" style="whiteSpace=wrap;html=1;fontFamily=Helvetica;fontSize=11;fontColor=default;labelBackgroundColor=default;" vertex="1" parent="1">
          <mxGeometry x="2470" y="1110" width="120" height="60" as="geometry" />
        </mxCell>
        <mxCell id="NpMVmpPeoFZolYydam3e-1527" value="3. Discretization + Piece Wise" style="whiteSpace=wrap;html=1;fontFamily=Helvetica;fontSize=11;fontColor=default;labelBackgroundColor=default;" vertex="1" parent="1">
          <mxGeometry x="2470" y="1190" width="120" height="60" as="geometry" />
        </mxCell>
        <mxCell id="NpMVmpPeoFZolYydam3e-1528" value="Point&lt;div&gt;(Discrete)&lt;/div&gt;" style="whiteSpace=wrap;html=1;" vertex="1" parent="1">
          <mxGeometry x="710" y="1120" width="120" height="60" as="geometry" />
        </mxCell>
        <mxCell id="NpMVmpPeoFZolYydam3e-1529" value="Distributed&lt;div&gt;(Continuous)&lt;/div&gt;" style="whiteSpace=wrap;html=1;" vertex="1" parent="1">
          <mxGeometry x="880" y="1120" width="120" height="60" as="geometry" />
        </mxCell>
        <mxCell id="NpMVmpPeoFZolYydam3e-1531" style="edgeStyle=none;shape=connector;rounded=0;orthogonalLoop=1;jettySize=auto;html=1;exitX=0.75;exitY=0;exitDx=0;exitDy=0;entryX=0.129;entryY=0.94;entryDx=0;entryDy=0;entryPerimeter=0;strokeColor=default;align=center;verticalAlign=middle;fontFamily=Helvetica;fontSize=11;fontColor=default;labelBackgroundColor=default;endArrow=classic;" edge="1" parent="1" source="hRcAGuIF9GtKOeHrfG8j-1517" target="NpMVmpPeoFZolYydam3e-1529">
          <mxGeometry relative="1" as="geometry" />
        </mxCell>
        <mxCell id="NpMVmpPeoFZolYydam3e-1534" value="4. Plug and Chug" style="whiteSpace=wrap;html=1;fontFamily=Helvetica;fontSize=11;fontColor=default;labelBackgroundColor=default;" vertex="1" parent="1">
          <mxGeometry x="2470" y="1280" width="120" height="60" as="geometry" />
        </mxCell>
      </root>
    </mxGraphModel>
  </diagram>
</mxfile>
